<?xml version="1.0" encoding="UTF-8" standalone="no"?>
<!DOCTYPE svg PUBLIC "-//W3C//DTD SVG 20010904//EN" "http://www.w3.org/TR/2001/REC-SVG-20010904/DTD/svg10.dtd">
<svg version="1.0" xmlns="http://www.w3.org/2000/svg" width="128.000000pt" height="128.000000pt" viewBox="0 0 128.000000 128.000000" preserveAspectRatio="xMidYMid meet">
<metadata>
Created by potrace 1.11, written by Peter Selinger 2001-2013
</metadata>
<g transform="translate(0.000000,128.000000) scale(0.100000,-0.100000)" fill="#000000" stroke="none">
<path d="M1 1018 l0 -263 18 70 c22 84 36 121 51 130 5 3 8 10 5 15 -3 5 3 15 15 22 11 7 20 24 20 38 0 14 4 31 9 39 6 10 5 24 -4 40 -8 17 -10 40 -6 66 6 39 8 41 86 72 l80 32 -137 1 -138 0 1 -262z"/>
<path d="M1075 1265 c61 -20 152 -71 180 -101 l25 -27 0 72 0 71 -122 -1 c-115 -1 -120 -2 -83 -14z"/>
<path d="M299 1081 c-40 -13 -109 -62 -109 -78 0 -10 5 -11 18 -4 40 21 154 43 257 50 102 6 108 7 85 21 -29 16 -209 24 -251 11z"/>
<path d="M963 1043 c-13 -2 -23 -8 -23 -13 0 -12 19 -17 125 -34 99 -16 158 -37 193 -69 l22 -20 0 24 c0 39 -72 93 -144 107 -58 12 -128 14 -173 5z"/>
<path d="M273 900 c-44 -10 -66 -29 -53 -45 12 -15 62 -7 73 11 4 8 13 14 18 14 6 0 7 -5 3 -11 -11 -18 17 -29 75 -29 52 0 53 1 47 25 -8 33 7 32 55 -1 38 -26 63 -26 52 2 -11 30 -59 44 -150 43 -48 -1 -103 -5 -120 -9z"/>
<path d="M941 858 c-14 -7 -26 -19 -29 -25 -5 -18 29 -16 52 2 22 17 66 20 66 5 0 -5 -9 -10 -20 -10 -11 0 -20 -4 -20 -9 0 -20 31 -32 76 -29 42 3 49 6 54 28 6 26 11 23 35 -25 7 -13 21 -20 40 -20 47 0 40 34 -14 64 -53 29 -200 41 -240 19z m139 -18 c12 -8 11 -10 -7 -10 -13 0 -23 5 -23 10 0 13 11 13 30 0z"/>
<path d="M315 790 c8 -13 75 -13 95 0 11 7 -2 10 -43 10 -36 0 -56 -4 -52 -10z"/>
<path d="M996 750 c7 -6 40 -14 75 -17 86 -7 67 13 -21 22 -50 5 -62 4 -54 -5z"/>
<path d="M1 577 c-1 -148 -1 -148 28 -191 17 -24 33 -56 37 -72 4 -16 10 -33 14 -39 4 -5 8 -17 8 -25 1 -8 8 -53 16 -99 8 -47 12 -89 9 -94 -3 -6 -1 -7 5 -3 6 3 20 -7 32 -24 l21 -30 179 0 c163 0 178 1 176 18 -1 12 6 17 27 17 15 0 27 -4 26 -10 -1 -5 -5 -9 -10 -8 -5 2 -9 -2 -9 -7 0 -6 43 -10 109 -10 105 0 110 1 117 22 9 30 56 88 71 88 7 0 11 19 10 56 -1 49 -3 53 -14 37 -63 -86 -125 -112 -220 -90 -34 8 -71 21 -82 29 -18 13 -91 111 -91 123 0 3 15 5 34 5 24 0 39 -7 50 -22 16 -23 75 -36 167 -37 35 -1 51 4 65 20 17 19 27 21 81 16 65 -5 81 3 96 45 6 18 -19 39 -38 32 -6 -3 -19 9 -28 26 -32 53 -81 70 -214 73 -107 2 -121 0 -154 -21 -20 -12 -48 -22 -62 -22 -30 0 -44 -17 -28 -33 19 -19 12 -25 -21 -17 -18 4 -32 12 -30 18 1 7 -5 12 -13 12 -11 0 -15 -11 -15 -40 0 -34 4 -41 24 -46 16 -4 33 -21 46 -46 l21 -41 -20 -21 c-28 -30 -26 -48 9 -86 16 -18 30 -36 30 -41 0 -14 -69 -22 -84 -10 -7 6 -16 25 -20 41 -4 21 -14 34 -33 41 -56 20 -127 128 -107 161 6 10 4 10 -8 0 -13 -10 -17 -10 -21 2 -9 22 19 42 38 26 43 -35 65 40 31 105 -34 63 -80 106 -138 129 -29 12 -53 26 -53 31 -1 6 -8 26 -18 45 -9 19 -23 53 -31 75 -14 38 -15 33 -15 -108z m269 -503 c0 -8 -4 -12 -10 -9 -5 3 -10 10 -10 16 0 5 5 9 10 9 6 0 10 -7 10 -16z"/>
<path d="M550 585 c0 -8 -7 -15 -15 -15 -8 0 -15 -7 -15 -15 0 -11 12 -15 48 -15 26 0 52 -4 58 -9 11 -12 137 -16 183 -6 26 6 32 5 26 -5 -5 -8 -2 -11 11 -8 13 2 18 12 18 33 l0 30 -99 3 c-55 1 -104 7 -109 12 -6 6 -32 10 -58 10 -36 0 -48 -4 -48 -15z"/>
<path d="M1248 460 c-7 -11 -21 -20 -31 -20 -9 0 -27 -5 -40 -12 -12 -6 -29 -14 -37 -18 -27 -12 -81 -92 -78 -114 4 -26 45 -35 54 -12 3 9 12 16 19 16 7 0 18 7 25 15 10 12 15 13 21 4 8 -14 -51 -79 -73 -79 -16 0 -78 -66 -78 -84 0 -6 9 -17 21 -24 14 -9 20 -21 17 -36 -7 -35 26 -30 66 12 20 20 36 39 36 43 0 3 11 19 25 35 52 59 77 124 82 212 6 85 -3 104 -29 62z"/>
<path d="M910 25 c-7 -9 -21 -13 -31 -10 -9 3 -20 1 -24 -5 -4 -6 7 -10 27 -10 22 0 37 7 46 20 14 23 0 27 -18 5z"/>
</g>
</svg>